<svg xmlns="http://www.w3.org/2000/svg" fill="none" viewBox="0 0 101 101">
  <path fill="#00d299" d="M79.994 46.601s3.326-1.664 10.19-2.762c3.42-.605 6.433-.905 9.907-.896V.675C87.916.73 76.163 2.83 64.709 6.886l15.285 39.715Zm-13.956 7.916s-4.484 3.658-6.768 5.976c-2.057 2.061-6.171 7.471-6.171 7.471l-37.36-22.549a95.217 95.217 0 0 1 25.147-26.173l25.152 35.275Zm-22.615 44.31a65.335 65.335 0 0 1 3.182-17.24c.343-1.01.583-1.792.583-1.792l-42.234-11.4a104.39 104.39 0 0 0-4.862 31.826v.454h43.256s.02-.831.075-1.848Zm56.668-16.418v-24.24c-25.125.512-41.492 17.78-41.492 42.053v.453h24.244c.01-.109.009-.214.007-.318v-.104c0-10.554 6.17-17.422 17.241-17.844Z"/>
</svg>
